<svg width="48" height="48" viewBox="0 0 48 48" fill="none" xmlns="http://www.w3.org/2000/svg">
<path d="M32.8862 18.7193V17.5122L32.0327 18.3658L14.6008 35.7976C13.9378 36.4607 12.8498 36.4607 12.1868 35.7976C11.5237 35.1345 11.5237 34.0466 12.1868 33.3835L29.6186 15.9517L30.4722 15.0981H29.2651L14.0337 15.0981C13.0925 15.0981 12.3332 14.3388 12.3332 13.3977C12.3332 12.4566 13.0925 11.6972 14.0337 11.6972L34.6023 11.6972C35.5434 11.6972 36.3027 12.4566 36.3027 13.3977L36.3027 33.9663C36.3027 34.9075 35.5434 35.6668 34.6023 35.6668C33.6612 35.6668 32.8862 34.8918 32.8862 33.9507L32.8862 18.7193Z" stroke="#323232"/>
</svg>
