<svg width="134" height="134" viewBox="0 0 134 134" fill="none" xmlns="http://www.w3.org/2000/svg">
<path d="M67.3531 19.297C66.7651 19.297 66.2528 19.1856 65.8163 18.9629C65.3886 18.7402 65.0546 18.4194 64.814 18.0007C64.5824 17.5731 64.4666 17.0697 64.4666 16.4906V12.0807C64.4666 11.4927 64.5824 10.9894 64.814 10.5706C65.0546 10.1519 65.3886 9.8312 65.8163 9.60848C66.2528 9.38575 66.7651 9.27439 67.3531 9.27439C67.9411 9.27439 68.4489 9.39021 68.8765 9.62184C69.3041 9.84457 69.6338 10.1653 69.8654 10.584C70.097 11.0027 70.2128 11.5016 70.2128 12.0807H69.0101C69.0101 11.5284 68.8631 11.1052 68.5691 10.8112C68.2841 10.5083 67.8787 10.3568 67.3531 10.3568C66.8274 10.3568 66.4132 10.5038 66.1103 10.7978C65.8163 11.0918 65.6693 11.515 65.6693 12.0673V16.4906C65.6693 17.043 65.8163 17.4706 66.1103 17.7735C66.4132 18.0764 66.8274 18.2279 67.3531 18.2279C67.8787 18.2279 68.2841 18.0764 68.5691 17.7735C68.8631 17.4706 69.0101 17.043 69.0101 16.4906V15.2879H67.0323V14.1921H70.2128V16.4906C70.2128 17.0608 70.097 17.5597 69.8654 17.9873C69.6338 18.4061 69.3041 18.7312 68.8765 18.9629C68.4489 19.1856 67.9411 19.297 67.3531 19.297Z" fill="#323232"/>
<path d="M71.4783 19.1856L72.9323 9.53924L78.4822 10.3758L78.3189 11.4593L73.945 10.8001L73.4949 13.7865L77.4063 14.376L77.245 15.4464L73.3336 14.8568L72.8177 18.2793L77.1916 18.9385L77.0283 20.0221L71.4783 19.1856Z" fill="#323232"/>
<path d="M80.4989 20.9947L83.0552 12.7072L80.5013 11.9194L80.8243 10.8723L87.0815 12.8023L86.7585 13.8495L84.2045 13.0617L81.6481 21.3492L80.4989 20.9947Z" fill="#323232"/>
<path d="M93.8681 27.4875C93.3381 27.1262 92.942 26.7267 92.6796 26.2891C92.4247 25.8565 92.3071 25.4043 92.3268 24.9325C92.3465 24.4608 92.5083 23.9942 92.8121 23.5328L93.8058 24.2103C93.5298 24.6152 93.4476 25.0282 93.5594 25.4494C93.6785 25.8757 93.9847 26.2569 94.4779 26.5932C94.9416 26.9094 95.3801 27.0412 95.7933 26.9886C96.2138 26.9411 96.5621 26.7149 96.8382 26.3101C97.059 25.9862 97.1639 25.6426 97.1528 25.2792C97.1491 24.9209 97.018 24.5835 96.7593 24.267L95.8996 23.1794C95.463 22.6337 95.2292 22.0592 95.1984 21.456C95.175 20.8578 95.3465 20.29 95.7128 19.7526C96.0089 19.3183 96.3606 19.0082 96.7678 18.8221C97.1873 18.6337 97.634 18.5717 98.1078 18.6359C98.5865 18.6928 99.0652 18.8843 99.5436 19.2105C100.25 19.6923 100.682 20.2775 100.837 20.9661C100.998 21.6473 100.859 22.3179 100.42 22.9781L99.4262 22.3006C99.6973 21.9031 99.7866 21.5111 99.6942 21.1247C99.6143 20.7359 99.3571 20.3934 98.9228 20.0973C98.4959 19.8063 98.0907 19.681 97.7073 19.7215C97.3312 19.767 97.0177 19.9738 96.7668 20.3418C96.5409 20.673 96.4335 21.0203 96.4446 21.3837C96.4556 21.7471 96.5917 22.0932 96.8526 22.4221L97.7159 23.5282C98.1378 24.0638 98.358 24.6345 98.3764 25.2401C98.3948 25.8457 98.2183 26.4208 97.8469 26.9655C97.5458 27.4072 97.1793 27.7234 96.7474 27.9141C96.3154 28.1048 95.849 28.1642 95.3481 28.0923C94.8546 28.0254 94.3613 27.8238 93.8681 27.4875Z" fill="#323232"/>
<path d="M99.0364 31.3869L104.935 25.0292L102.976 23.2113L103.722 22.408L108.522 26.8619L107.776 27.6651L105.817 25.8473L99.918 32.2049L99.0364 31.3869Z" fill="#323232"/>
<path d="M102.452 34.6754L111.662 30.5782L112.67 31.8424L106.618 39.8994L105.86 38.9487L107.486 36.8308L105.645 34.5218L103.218 35.6367L102.452 34.6754ZM106.589 34.0766L108.122 35.999L110.006 33.5392C110.363 33.0723 110.667 32.6881 110.916 32.3865C111.166 32.085 111.33 31.8911 111.409 31.805C111.308 31.8633 111.082 31.9805 110.733 32.1567C110.383 32.3328 109.945 32.5402 109.417 32.7787L106.589 34.0766Z" fill="#323232"/>
<path d="M107.124 40.8037L115.573 35.9261L117.083 38.5416C117.372 39.0431 117.522 39.543 117.532 40.0413C117.55 40.5352 117.437 40.991 117.195 41.4086C116.953 41.8263 116.588 42.1755 116.102 42.4561C115.531 42.7857 114.955 42.9181 114.372 42.8533C113.794 42.7962 113.281 42.5576 112.832 42.1375L110.151 46.0463L109.443 44.8196L112.095 41.128L111.313 39.774L107.726 41.8453L107.124 40.8037ZM112.251 39.2327L113.159 40.8067C113.409 41.2387 113.744 41.508 114.166 41.6144C114.595 41.7164 115.033 41.6382 115.481 41.3798C115.936 41.117 116.223 40.7765 116.342 40.3582C116.46 39.94 116.395 39.5149 116.145 39.0828L115.237 37.5089L112.251 39.2327Z" fill="#323232"/>
<path d="M111.227 48.7909L119.301 45.6224L118.324 43.1345L119.344 42.7341L121.736 48.8295L120.716 49.2299L119.74 46.742L111.667 49.9105L111.227 48.7909Z" fill="#323232"/>
<path d="M112.948 53.5632L122.458 51.3924L123.707 56.8643L122.639 57.1082L121.655 52.7958L118.71 53.4678L119.591 57.3242L118.535 57.5651L117.655 53.7087L114.281 54.4789L115.265 58.7913L114.197 59.0351L112.948 53.5632Z" fill="#323232"/>
<path d="M114.422 60.7854L124.15 60.0564L124.338 62.575C124.386 63.2058 124.306 63.7567 124.1 64.2277C123.895 64.7077 123.584 65.0883 123.168 65.3697C122.752 65.66 122.246 65.8274 121.651 65.872L117.773 66.1626C117.178 66.2072 116.648 66.1174 116.185 65.893C115.731 65.6769 115.367 65.3468 115.092 64.9028C114.818 64.4677 114.658 63.9348 114.61 63.304L114.422 60.7854ZM115.578 61.9048L115.676 63.2241C115.72 63.8105 115.919 64.2557 116.272 64.5598C116.626 64.8727 117.097 65.0072 117.683 64.9633L121.561 64.6727C122.138 64.6294 122.579 64.4267 122.882 64.0644C123.186 63.7111 123.316 63.2412 123.272 62.6549L123.173 61.3356L115.578 61.9048Z" fill="#323232"/>
<path d="M115.049 76.4694L115.915 75.68L116.771 76.6155C116.91 76.7661 117.04 76.9374 117.16 77.1294C117.29 77.3234 117.406 77.5144 117.509 77.7025C117.619 77.9012 117.713 78.0733 117.789 78.2187L117.889 78.2004C117.944 78.0393 118.004 77.8566 118.069 77.6521C118.143 77.4496 118.226 77.2447 118.319 77.0375C118.419 76.8409 118.52 76.6584 118.622 76.4899L119.301 75.4385L120.293 76.0762L119.614 77.1275C119.512 77.296 119.382 77.463 119.226 77.6283C119.076 77.8043 118.92 77.9696 118.756 78.1242C118.602 78.2808 118.458 78.4124 118.324 78.5189L118.361 78.5959C118.536 78.5902 118.733 78.585 118.954 78.5805C119.183 78.5779 119.414 78.5851 119.648 78.6019C119.89 78.6206 120.112 78.6528 120.311 78.6984L121.549 78.9809L121.287 80.1274L120.05 79.8449C119.85 79.7993 119.637 79.7324 119.41 79.6441C119.192 79.5578 118.981 79.4639 118.775 79.3622C118.579 79.2625 118.404 79.1678 118.251 79.078L118.184 79.1312C118.256 79.294 118.329 79.4751 118.402 79.6746C118.482 79.8847 118.553 80.0972 118.613 80.3121C118.681 80.5377 118.724 80.7486 118.743 80.9448L118.895 82.1995L117.725 82.3436L117.573 81.0889C117.551 80.9013 117.54 80.693 117.537 80.4639C117.541 80.2456 117.554 80.0292 117.575 79.8148C117.606 79.6024 117.631 79.4117 117.651 79.2427L117.559 79.1668C117.425 79.2733 117.266 79.3878 117.083 79.5105C116.906 79.6438 116.719 79.7654 116.52 79.8754C116.328 79.9961 116.142 80.0907 115.962 80.1592L114.782 80.6438L114.345 79.5571L115.524 79.0725C115.704 79.004 115.906 78.9404 116.13 78.8817C116.351 78.8318 116.572 78.7862 116.792 78.7449C117.009 78.7124 117.202 78.6879 117.37 78.6714L117.391 78.5802C117.247 78.4924 117.085 78.3823 116.905 78.2499C116.723 78.1261 116.544 77.9893 116.368 77.8395C116.19 77.6983 116.036 77.5535 115.905 77.4049L115.049 76.4694Z" fill="#323232"/>
<path d="M108.036 90.9294C108.33 90.4202 108.683 90.0322 109.094 89.7655C109.501 89.5066 109.945 89.3776 110.428 89.3786C110.915 89.3919 111.408 89.5432 111.91 89.8328L115.729 92.0377C116.238 92.3317 116.616 92.6837 116.863 93.0937C117.105 93.5113 117.216 93.961 117.195 94.4427C117.17 94.9321 117.01 95.4315 116.716 95.9407C116.422 96.4499 116.068 96.8318 115.653 97.0863C115.247 97.3453 114.804 97.4704 114.326 97.4616C113.847 97.4528 113.357 97.3037 112.856 97.0142L113.457 95.9726C113.936 96.2488 114.376 96.333 114.777 96.2254C115.182 96.13 115.516 95.8547 115.779 95.3995C116.041 94.9443 116.121 94.512 116.018 94.1027C115.911 93.7011 115.618 93.3622 115.139 93.086L111.309 90.8743C110.83 90.5982 110.386 90.5117 109.977 90.6148C109.563 90.7257 109.225 91.0087 108.962 91.4639C108.699 91.9191 108.628 92.3459 108.748 92.7443C108.863 93.1503 109.16 93.4914 109.638 93.7676L110.68 94.369L111.669 92.6562L112.618 93.2041L111.027 95.9584L109.037 94.8092C108.543 94.5241 108.169 94.1744 107.914 93.7599C107.667 93.35 107.551 92.9019 107.564 92.4158C107.585 91.9341 107.742 91.4386 108.036 90.9294Z" fill="#323232"/>
<path d="M105.994 94.4668L113.621 100.549L110.121 104.937L109.265 104.254L112.022 100.796L109.661 98.9127L107.195 102.005L106.349 101.33L108.815 98.2378L106.109 96.0798L103.351 99.5381L102.494 98.8549L105.994 94.4668Z" fill="#323232"/>
<path d="M99.914 101.377L105.813 107.735L107.772 105.917L108.518 106.72L103.717 111.174L102.972 110.371L104.931 108.553L99.0323 102.195L99.914 101.377Z" fill="#323232"/>
<path d="M87.6024 109.704C88.1803 109.426 88.7243 109.283 89.2345 109.274C89.7366 109.27 90.187 109.394 90.5857 109.647C90.9844 109.9 91.3076 110.273 91.5553 110.767L90.4717 111.289C90.2591 110.848 89.9425 110.57 89.5218 110.456C89.0931 110.346 88.6098 110.421 88.072 110.68C87.5663 110.923 87.233 111.237 87.0718 111.621C86.9027 112.009 86.9244 112.424 87.137 112.865C87.3071 113.218 87.5523 113.481 87.8725 113.653C88.1846 113.829 88.5424 113.884 88.9459 113.819L90.3176 113.618C91.0085 113.512 91.6228 113.597 92.1607 113.872C92.6905 114.151 93.0965 114.583 93.3786 115.169C93.6067 115.643 93.6995 116.103 93.657 116.548C93.6104 117.006 93.4408 117.424 93.1483 117.802C92.8596 118.188 92.4545 118.507 91.9327 118.758C91.1622 119.129 90.4397 119.21 89.7655 119.001C89.095 118.8 88.5838 118.344 88.2318 117.633L89.3154 117.111C89.5241 117.545 89.8189 117.818 90.1997 117.931C90.5764 118.057 91.0015 118.005 91.4751 117.777C91.9407 117.553 92.2518 117.265 92.4084 116.912C92.557 116.564 92.5347 116.189 92.3414 115.788C92.1675 115.426 91.9204 115.16 91.6002 114.988C91.28 114.816 90.9123 114.76 90.4969 114.822L89.1074 115.016C88.4325 115.114 87.8283 115.019 87.2946 114.732C86.7609 114.446 86.3511 114.005 86.065 113.411C85.8331 112.93 85.7426 112.454 85.7934 111.985C85.8442 111.515 86.0259 111.082 86.3386 110.684C86.6433 110.29 87.0646 109.963 87.6024 109.704Z" fill="#323232"/>
<path d="M81.6474 112.231L84.2037 120.518L86.7577 119.731L87.0807 120.778L80.8235 122.708L80.5005 121.661L83.0545 120.873L80.4981 112.585L81.6474 112.231Z" fill="#323232"/>
<path d="M77.089 113.547L76.0322 123.572L74.4333 123.813L70.4819 114.543L71.6844 114.362L72.705 116.83L75.6254 116.39L75.8733 113.73L77.089 113.547ZM75.5389 117.43L73.1075 117.796L74.2956 120.658C74.5215 121.2 74.7027 121.655 74.8391 122.022C74.9755 122.389 75.0611 122.628 75.096 122.74C75.0963 122.623 75.1076 122.369 75.1298 121.978C75.152 121.587 75.1917 121.104 75.249 120.528L75.5389 117.43Z" fill="#323232"/>
<path d="M69.3978 114.627V124.383H66.3776C65.7985 124.383 65.2907 124.262 64.8542 124.022C64.4176 123.79 64.0791 123.465 63.8386 123.046C63.598 122.628 63.4778 122.138 63.4778 121.576C63.4778 120.917 63.6515 120.351 63.9989 119.879C64.3375 119.407 64.8007 119.082 65.3887 118.904L63.3441 114.627H64.7606L66.6315 118.77H68.195V114.627H69.3978ZM68.195 119.853H66.3776C65.8787 119.853 65.4778 120.008 65.1749 120.32C64.872 120.641 64.7206 121.06 64.7206 121.576C64.7206 122.102 64.872 122.521 65.1749 122.833C65.4778 123.144 65.8787 123.3 66.3776 123.3H68.195V119.853Z" fill="#323232"/>
<path d="M60.4772 114.084L59.1846 122.66L61.8274 123.059L61.6641 124.142L55.1892 123.166L55.3525 122.083L57.9953 122.481L59.2879 113.905L60.4772 114.084Z" fill="#323232"/>
<path d="M55.4805 113.194L52.6051 122.516L47.2418 120.862L47.5648 119.815L51.7916 121.119L52.6818 118.233L48.902 117.067L49.221 116.032L53.0009 117.198L54.0211 113.891L49.7943 112.587L50.1173 111.54L55.4805 113.194Z" fill="#323232"/>
<path d="M48.495 110.861L44.2623 119.65L41.9867 118.554C41.4168 118.28 40.9794 117.936 40.6744 117.522C40.3614 117.104 40.1872 116.644 40.1519 116.143C40.1085 115.637 40.2163 115.116 40.4753 114.578L42.1626 111.074C42.4215 110.537 42.7641 110.123 43.1901 109.834C43.6043 109.549 44.0722 109.398 44.594 109.383C45.1077 109.363 45.6495 109.49 46.2194 109.765L48.495 110.861ZM46.9475 111.302L45.7555 110.728C45.2258 110.473 44.7409 110.422 44.3009 110.576C43.8529 110.726 43.5013 111.066 43.2462 111.596L41.5589 115.1C41.3076 115.622 41.263 116.104 41.425 116.548C41.579 116.988 41.9208 117.336 42.4506 117.591L43.6426 118.165L46.9475 111.302Z" fill="#323232"/>
<path d="M34.598 103.558L34.8488 104.702L33.6109 104.976C33.4108 105.021 33.1975 105.048 32.9709 105.056C32.7382 105.071 32.5146 105.077 32.3001 105.072C32.073 105.068 31.8774 105.063 31.7132 105.056L31.679 105.152C31.7909 105.28 31.9192 105.423 32.0639 105.582C32.2024 105.747 32.3382 105.922 32.4711 106.106C32.5915 106.29 32.6991 106.469 32.7938 106.642L33.365 107.755L32.3167 108.296L31.7455 107.182C31.6508 107.01 31.571 106.814 31.5061 106.596C31.4286 106.378 31.3637 106.16 31.3114 105.941C31.253 105.729 31.2112 105.538 31.1859 105.369L31.1006 105.363C31.0181 105.517 30.9238 105.691 30.8175 105.884C30.7052 106.084 30.5833 106.28 30.4519 106.474C30.3144 106.675 30.176 106.85 30.0366 107.001L29.1731 107.931L28.3111 107.131L29.1746 106.201C29.3139 106.051 29.4785 105.899 29.6682 105.747C29.8519 105.602 30.0391 105.465 30.2297 105.339C30.4144 105.218 30.5838 105.114 30.7381 105.026L30.7255 104.942C30.5483 104.923 30.355 104.896 30.1456 104.859C29.9236 104.824 29.7045 104.778 29.4881 104.723C29.2591 104.669 29.0548 104.601 28.8752 104.519L27.7125 104.024L28.1731 102.938L29.3358 103.434C29.5088 103.509 29.6952 103.603 29.8948 103.715C30.0818 103.828 30.2628 103.947 30.4377 104.073C30.6066 104.206 30.7591 104.323 30.8953 104.425L31.0072 104.383C30.9819 104.214 30.9621 104.019 30.9475 103.799C30.9204 103.579 30.9089 103.356 30.913 103.129C30.9045 102.902 30.9156 102.694 30.9463 102.503L31.1165 101.239L32.2763 101.404L32.1061 102.668C32.0754 102.858 32.0296 103.065 31.9686 103.288C31.901 103.505 31.8302 103.718 31.7562 103.929C31.6756 104.134 31.6003 104.313 31.5304 104.467L31.599 104.531C31.7473 104.45 31.9237 104.364 32.1284 104.275C32.3266 104.179 32.5345 104.092 32.7522 104.015C32.9635 103.931 33.166 103.87 33.36 103.831L34.598 103.558Z" fill="#323232"/>
<path d="M25.5838 90.2546C25.8778 90.7638 26.0375 91.2631 26.0629 91.7525C26.0838 92.2342 25.9731 92.6839 25.7307 93.1016C25.4762 93.516 25.0982 93.868 24.5967 94.1575L20.7776 96.3625C20.2684 96.6565 19.7745 96.8079 19.2961 96.8166C18.8132 96.8177 18.3684 96.6887 17.9617 96.4297C17.5506 96.1631 17.198 95.7751 16.904 95.2659C16.61 94.7567 16.4564 94.259 16.4432 93.7728C16.4222 93.2911 16.5352 92.8453 16.782 92.4353C17.0288 92.0254 17.403 91.6756 17.9045 91.3861L18.5058 92.4277C18.0275 92.7038 17.7345 93.0427 17.6269 93.4443C17.5071 93.8427 17.5786 94.2695 17.8414 94.7247C18.1042 95.1799 18.4387 95.4651 18.8447 95.5805C19.2463 95.6881 19.6863 95.6038 20.1647 95.3276L23.9953 93.116C24.4737 92.8398 24.7705 92.4987 24.8859 92.0926C24.9967 91.6788 24.9208 91.2443 24.658 90.7891C24.3951 90.3339 24.0613 90.0586 23.6564 89.9632C23.2471 89.86 22.8033 89.9465 22.3249 90.2227L21.2833 90.8241L22.2722 92.5369L21.3232 93.0848L19.733 90.3304L21.7236 89.1811C22.2173 88.896 22.7073 88.7469 23.1935 88.7337C23.6719 88.7249 24.1183 88.8478 24.5328 89.1023C24.9395 89.3613 25.2898 89.7454 25.5838 90.2546Z" fill="#323232"/>
<path d="M23.539 86.7158L14.458 90.2798L12.4075 85.0552L13.4276 84.6548L15.0436 88.7724L17.855 87.669L16.4098 83.9868L17.4174 83.5914L18.8626 87.2735L22.0844 86.009L20.4684 81.8915L21.4885 81.4912L23.539 86.7158Z" fill="#323232"/>
<path d="M20.5945 77.9959L12.1391 79.9258L12.7338 82.5314L11.6655 82.7753L10.2084 76.3914L11.2767 76.1475L11.8715 78.7532L20.3269 76.8233L20.5945 77.9959Z" fill="#323232"/>
<path d="M19.5332 63.1757C19.4853 63.8154 19.3374 64.3582 19.0895 64.8042C18.8424 65.2413 18.5096 65.5693 18.0911 65.7881C17.6727 66.0069 17.1878 66.1001 16.6363 66.0677L16.7262 64.8683C17.2148 64.9049 17.6136 64.7695 17.9225 64.4621C18.2321 64.1458 18.4092 63.6901 18.4538 63.0949C18.4957 62.5352 18.3906 62.0895 18.1385 61.7579C17.8871 61.4175 17.5171 61.2289 17.0284 61.1923C16.6376 61.163 16.2875 61.244 15.9784 61.4352C15.6699 61.6176 15.4433 61.8999 15.2985 62.2822L14.7865 63.5705C14.5322 64.2215 14.1516 64.7111 13.6445 65.0394C13.1382 65.3588 12.5607 65.4942 11.9122 65.4456C11.388 65.4063 10.9436 65.2569 10.5789 64.9973C10.206 64.7281 9.92888 64.3723 9.74762 63.9299C9.55747 63.4868 9.48404 62.9766 9.52731 62.3991C9.59123 61.5462 9.88236 60.8801 10.4007 60.4008C10.9102 59.9208 11.5606 59.706 12.3519 59.7564L12.2621 60.9557C11.7823 60.9198 11.3982 61.0384 11.1097 61.3116C10.813 61.5753 10.645 61.9692 10.6057 62.4933C10.5671 63.0086 10.6612 63.4221 10.888 63.734C11.1154 64.0369 11.4513 64.205 11.8955 64.2383C12.2952 64.2682 12.6497 64.1876 12.9589 63.9964C13.268 63.8051 13.4998 63.5143 13.6541 63.1238L14.1804 61.8231C14.4333 61.1899 14.8174 60.7139 15.3327 60.3952C15.8479 60.0764 16.4343 59.9417 17.0917 59.991C17.6247 60.0309 18.0818 60.1903 18.4629 60.469C18.8441 60.7477 19.1287 61.1219 19.3169 61.5916C19.5057 62.0525 19.5778 62.5805 19.5332 63.1757Z" fill="#323232"/>
<path d="M20.3274 56.7502L11.872 54.8203L11.2772 57.426L10.2089 57.1822L11.666 50.7983L12.7343 51.0421L12.1396 53.6478L20.595 55.5777L20.3274 56.7502Z" fill="#323232"/>
<path d="M21.4666 52.1452L13.3133 46.2177L13.904 44.7125L23.9077 45.9254L23.4635 47.0574L20.8158 46.7074L19.7369 49.4565L21.9158 51.0008L21.4666 52.1452ZM18.8793 48.8616L19.7776 46.5727L16.7053 46.1708C16.1225 46.0952 15.6381 46.0247 15.2522 45.9594C14.8663 45.8941 14.6162 45.8486 14.5019 45.8228C14.6032 45.8817 14.8175 46.0185 15.1448 46.2331C15.4721 46.4477 15.871 46.7238 16.3414 47.0616L18.8793 48.8616Z" fill="#323232"/>
<path d="M24.4367 45.0356L15.9884 40.158L17.4984 37.5425C17.788 37.041 18.146 36.6613 18.5726 36.4035C18.9915 36.1413 19.4424 36.0107 19.9253 36.0118C20.4082 36.0128 20.8926 36.1536 21.3787 36.4343C21.9497 36.7639 22.3527 37.1972 22.5879 37.7342C22.8276 38.2635 22.8775 38.8273 22.7378 39.4256L27.4635 39.793L26.7553 41.0198L22.2322 40.5687L21.4504 41.9227L25.0381 43.9941L24.4367 45.0356ZM20.513 41.3815L21.4217 39.8076C21.6712 39.3755 21.7366 38.9504 21.618 38.5321C21.4917 38.1095 21.2048 37.7689 20.7573 37.5106C20.3021 37.2478 19.8638 37.1696 19.4423 37.276C19.0208 37.3824 18.6853 37.6516 18.4359 38.0837L17.5271 39.6576L20.513 41.3815Z" fill="#323232"/>
<path d="M29.3065 37.4926L22.5258 32.0852L20.8594 34.1747L20.0027 33.4915L24.0854 28.372L24.9421 29.0553L23.2757 31.1448L30.0564 36.5523L29.3065 37.4926Z" fill="#323232"/>
<path d="M32.5754 33.6104L25.9401 26.4592L30.0544 22.6417L30.7998 23.445L27.5573 26.4536L29.6115 28.6675L32.5111 25.977L33.2474 26.7705L30.3477 29.461L32.7019 31.9981L35.9444 28.9895L36.6897 29.7928L32.5754 33.6104Z" fill="#323232"/>
<path d="M38.0907 28.7218L32.5954 20.6616L34.6822 19.2388C35.2048 18.8825 35.7216 18.6757 36.2325 18.6185C36.7508 18.5563 37.2359 18.6353 37.6879 18.8554C38.1473 19.0706 38.5451 19.4248 38.8814 19.9179L41.072 23.131C41.4082 23.6242 41.5951 24.1275 41.6325 24.6411C41.6723 25.1423 41.5686 25.6228 41.3213 26.0825C41.0814 26.5372 40.7002 26.9427 40.1775 27.299L38.0907 28.7218ZM38.4822 27.161L39.5753 26.4157C40.0611 26.0845 40.3474 25.6899 40.434 25.2318C40.5281 24.7688 40.4095 24.2943 40.0782 23.8085L37.8876 20.5954C37.5614 20.117 37.1656 19.8369 36.7002 19.7553C36.2422 19.6686 35.7702 19.7909 35.2844 20.1221L34.1913 20.8674L38.4822 27.161Z" fill="#323232"/>
<path d="M51.3637 20.3406L50.2473 19.9858L50.6296 18.777C50.6904 18.5811 50.7738 18.3829 50.8797 18.1824C50.9831 17.9734 51.0904 17.7772 51.2016 17.5937C51.3187 17.3991 51.4211 17.2323 51.5088 17.0934L51.4429 17.0158C51.2759 17.0487 51.0876 17.0881 50.878 17.1341C50.6658 17.1716 50.4468 17.2019 50.2208 17.225C50.0007 17.2369 49.7921 17.2406 49.595 17.2362L48.3452 17.1742L48.4013 15.9961L49.6511 16.0581C49.8483 16.0626 50.0576 16.0913 50.279 16.1442C50.5063 16.1859 50.7277 16.2388 50.9433 16.3029C51.1562 16.3584 51.3422 16.4175 51.5015 16.4803L51.5495 16.4095C51.4571 16.2609 51.3538 16.0923 51.2397 15.9038C51.123 15.7067 51.0135 15.5027 50.9111 15.2919C50.8062 15.0725 50.7235 14.865 50.6631 14.6692L50.2889 13.456L51.4126 13.1094L51.7868 14.3225C51.8472 14.5183 51.8959 14.7364 51.9327 14.9768C51.9669 15.2086 51.9913 15.4388 52.0059 15.6674C52.0178 15.8875 52.0232 16.0863 52.022 16.2638L52.1016 16.2952C52.2063 16.151 52.3267 15.9973 52.4629 15.8341C52.6049 15.6598 52.7538 15.4927 52.9096 15.3327C53.0712 15.1617 53.2323 15.0188 53.3926 14.904L54.4031 14.1448L55.1131 15.0866L54.1027 15.8457C53.9508 15.9579 53.7763 16.0723 53.5792 16.189C53.3881 16.2946 53.1942 16.3917 52.9978 16.4802C52.7987 16.5603 52.621 16.6338 52.4645 16.7007L52.4449 16.8186C52.6041 16.8814 52.7826 16.9615 52.9805 17.0589C53.1843 17.1453 53.3835 17.247 53.5781 17.3641C53.7786 17.47 53.9536 17.5839 54.103 17.7056L55.1126 18.485L54.3901 19.4071L53.3805 18.6277C53.2311 18.506 53.0751 18.363 52.9125 18.1987C52.7585 18.0318 52.6087 17.8635 52.4632 17.694C52.3262 17.5218 52.2085 17.367 52.1101 17.2295L52.0208 17.2571C52.0169 17.4261 52.0027 17.6216 51.9779 17.8437C51.9617 18.0631 51.9327 18.2865 51.891 18.5138C51.8577 18.7385 51.8094 18.9445 51.746 19.1319L51.3637 20.3406Z" fill="#323232"/>
<path d="M61.5461 75.4496L72.3307 64.6651L72.3307 73.1657C72.3307 74.5903 73.4941 75.7537 74.9187 75.7537C76.3433 75.7537 77.4956 74.6015 77.4956 73.1769L77.4956 58.4374C77.4956 57.0128 76.3433 55.8605 74.9187 55.8605L60.1792 55.8605C58.7546 55.8605 57.6024 57.0128 57.6024 58.4374C57.6024 59.862 58.7546 61.0142 60.1792 61.0142L68.6798 61.0142L57.8953 71.7988C56.8897 72.8044 56.8897 74.444 57.8953 75.4496C58.9009 76.4552 60.5405 76.4552 61.5461 75.4496Z" fill="white" stroke="#323232" stroke-width="2"/>
</svg>
