<svg width="40" height="40" viewBox="0 0 40 40" fill="none" xmlns="http://www.w3.org/2000/svg">
<path d="M19.9997 0.00012207C8.95594 0.00012207 0 8.95559 0 19.9996C0 22.2071 0.357656 24.3304 1.01844 26.3168H6.99984V9.48965L19.9997 22.4896L32.9995 9.48965V26.3168H38.9811C39.6422 24.3304 40 22.2071 40 19.9996C40 8.95559 31.0439 0.00012207 19.9997 0.00012207Z" fill="#F63045"/>
<path d="M17.0105 25.4784L11.3371 19.8048V30.3931H9.16835H6.9996H2.90991C6.42069 36.153 12.7616 39.9995 19.9994 39.9995C27.2373 39.9995 33.5787 36.153 37.0891 30.3931H32.999H29.1199H28.6621V19.8048L22.9885 25.4784L19.9994 28.4672L17.0108 25.4784H17.0105Z" fill="#323232"/>
</svg>
