<svg width="24" height="24" viewBox="0 0 24 24" fill="none" xmlns="http://www.w3.org/2000/svg">
<path d="M11.9998 0.95166C5.37356 0.95166 0 5.90862 0 12.0216C0 13.2435 0.214594 14.4188 0.611063 15.5183H4.19991V6.20423L11.9998 13.3999L19.7997 6.20423V15.5183H23.3887C23.7853 14.4188 24 13.2435 24 12.0216C24 5.90862 18.6263 0.95166 11.9998 0.95166Z" fill="#F63045"/>
<path d="M10.2062 15.0542L6.80216 11.9138V17.7746H5.50091H4.19966H1.74585C3.85232 20.9627 7.65688 23.0918 11.9996 23.0918C16.3423 23.0918 20.1471 20.9627 22.2534 17.7746H19.7993H17.4718H17.1972V11.9138L13.793 15.0542L11.9996 16.7085L10.2064 15.0542H10.2062Z" fill="#323232"/>
</svg>
