<svg width="48" height="48" viewBox="0 0 48 48" fill="none" xmlns="http://www.w3.org/2000/svg">
<path d="M26.8371 24.4005L9.95611 41.2815C9.3018 41.9358 8.41435 42.3034 7.48901 42.3034C6.56367 42.3034 5.67622 41.9358 5.02191 41.2815C4.36759 40.6272 4 39.7398 4 38.8144C4 37.8891 4.36759 37.0016 5.02191 36.3473L21.9029 19.4663" fill="#323232"/>
<path d="M41.6408 18.2315C41.56 18.1502 41.4639 18.0858 41.3581 18.0418C41.2523 17.9978 41.1388 17.9751 41.0242 17.9751C40.9096 17.9751 40.7962 17.9978 40.6903 18.0418C40.5845 18.0858 40.4885 18.1502 40.4077 18.2315C39.9855 18.6645 39.426 18.9374 38.8248 19.0035C38.2237 19.0696 37.6182 18.9248 37.112 18.5938C36.6059 18.2629 36.2304 17.7664 36.0498 17.1892C35.8693 16.612 35.8948 15.99 36.1222 15.4296C36.2455 15.1134 36.2744 14.7683 36.2052 14.436C36.136 14.1038 35.9719 13.7988 35.7326 13.5582C34.296 12.1181 31.7758 9.59966 31.7445 9.63097C29.535 7.60747 26.6825 6.4283 23.6891 6.30104C20.6957 6.17379 17.7534 7.1066 15.3801 8.93528C15.2314 9.04647 15.1222 9.20235 15.0684 9.38008C15.0147 9.55782 15.0193 9.74809 15.0815 9.92304C15.1437 10.098 15.2603 10.2484 15.4141 10.3524C15.568 10.4563 15.7511 10.5082 15.9366 10.5006C17.2646 10.4398 18.5906 10.6572 19.8297 11.1388C21.0688 11.6204 22.1935 12.3556 23.1318 13.2973C24.3302 14.4973 25.4276 15.9392 24.2293 17.1375L21.8987 19.4663L26.8329 24.4005L29.3009 21.9326C29.7917 21.442 30.4573 21.1665 31.1512 21.1667C31.8451 21.1668 32.5106 21.4426 33.0011 21.9334C33.4917 22.4242 33.7672 23.0898 33.767 23.7837C33.7669 24.4777 33.4911 25.1431 33.0003 25.6337C32.919 25.7145 32.8545 25.8105 32.8105 25.9164C32.7666 26.0222 32.7439 26.1356 32.7439 26.2502C32.7439 26.3648 32.7666 26.4783 32.8105 26.5841C32.8545 26.6899 32.919 26.786 33.0003 26.8668L34.8508 28.7173C35.0125 28.8801 35.2047 29.0092 35.4165 29.0974C35.6283 29.1855 35.8554 29.2309 36.0848 29.2309C36.3142 29.2309 36.5413 29.1855 36.7531 29.0974C36.9649 29.0092 37.1571 28.8801 37.3188 28.7173L43.4861 22.55C43.6489 22.3883 43.778 22.1961 43.8662 21.9843C43.9543 21.7725 43.9997 21.5454 43.9997 21.316C43.9997 21.0866 43.9543 20.8595 43.8662 20.6477C43.778 20.4359 43.6489 20.2437 43.4861 20.082L41.6408 18.2315Z" fill="#F63045"/>
<path d="M40.4061 18.2334L33.0039 25.6338" stroke="#323232" stroke-width="2" stroke-linecap="round" stroke-linejoin="round"/>
</svg>
